:SAMPLES-PER-SECOND 30
:FULLY-SPECIFIED
:DEGREES
44
root  -2.28115 40.9807 1.55746 -176.091 -87.2621 177.802
RightUpLeg  1.38904 -0.604439 -1.42574
RightLeg  -2.33217 -14.4826 0.28272
RightFoot  -0.168425 -0.320537 3.26349
RightToes  -3.10678e-008 1.75238e-005 3.56266e-009
Spine  1.84712 -1.97256 -3.31555
Spine1  -2.00681 -2.89711 5.79256
HEad  -12.4667 7.63081 -3.96612
LeftShoulder1  1.09806 -1.45226 -15.2955
LeftArm  -23.085 -53.9976 -58.8215
LeftForeArm  76.7408 -8.41652 3.36945
LeftHand  -0.963884 -0.299791 19.7119
RightShoulder  2.17989 4.3205 21.6014
RightArm  -29.2746 -31.6825 43.4685
RightForeArm  75.0305 7.34588 4.26252
RightHand  0.635673 3.86856 7.6533
LeftUpLeg  1.6116 0.225715 0.727078
LeftLeg  -2.79478 17.5419 -1.39561
LeftFoot  -0.123505 0.120547 -1.25002
LeftToes  4.76857e-008 1.46588e-008 1.31384e-009
45
root  -2.3353 40.9902 1.47372 -166.726 -88.6543 168.91
RightUpLeg  1.34035 -0.644276 -1.36432
RightLeg  -2.76719 -15.8626 0.556568
RightFoot  -0.136469 -0.315807 3.22057
RightToes  -3.10678e-008 1.75238e-005 3.56266e-009
Spine  2.08804 -2.04699 -4.58745
Spine1  -2.59402 -3.11627 7.10419
HEad  -13.3744 6.37628 -3.22786
LeftShoulder1  0.517055 0.87519 -12.6364
LeftArm  -17.9235 -64.0906 -63.1766
LeftForeArm  76.6946 -7.20727 4.35748
LeftHand  -1.03068 -1.17635 18.2689
RightShoulder  2.00034 4.00502 20.2914
RightArm  -30.6945 -38.8234 45.4749
RightForeArm  76.5604 7.18894 4.08429
RightHand  0.696306 4.19457 8.15502
LeftUpLeg  1.10742 0.254571 0.902811
LeftLeg  -2.95324 16.0551 -1.49772
LeftFoot  0.0975646 0.121725 -1.24999
LeftToes  4.76857e-008 1.46588e-008 1.31384e-009
46
root  -2.39184 40.9901 1.41204 -158.429 -89.9149 160.975
RightUpLeg  1.23051 -0.666295 -1.28962
RightLeg  -2.86984 -17.1692 0.712715
RightFoot  -0.252292 -0.313856 3.21354
RightToes  -3.10678e-008 1.75238e-005 3.56266e-009
Spine  2.59845 -2.15741 -5.14394
Spine1  -3.68448 -3.2507 7.73512
HEad  -13.2735 4.95078 -2.60358
LeftShoulder1  0.0911261 2.99701 -10.2076
LeftArm  -11.7174 -70.85 -69.9457
LeftForeArm  76.4783 -6.2044 5.90978
LeftHand  -0.887608 -0.982516 16.261
RightShoulder  1.85912 3.86293 18.7875
RightArm  -33.1501 -45.4452 48.3074
RightForeArm  78.5466 7.44264 3.57682
RightHand  0.575655 4.47029 6.46737
LeftUpLeg  0.586058 0.189462 0.994364
LeftLeg  -2.78977 14.7792 -1.39574
LeftFoot  0.139039 0.119671 -1.19726
LeftToes  4.76857e-008 1.46588e-008 1.31384e-009
47
root  -2.45633 40.9898 1.35615 -16.1037 -88.6877 18.7899
RightUpLeg  1.37396 -0.758348 -1.28102
RightLeg  -2.95632 -18.4321 0.818744
RightFoot  -0.410309 -0.304513 3.15154
RightToes  -3.10678e-008 1.75238e-005 3.56266e-009
Spine  2.7371 -2.44671 -5.36833
Spine1  -4.10564 -3.50551 7.73222
HEad  -13.5027 4.01626 -2.22329
LeftShoulder1  -0.222897 4.91328 -8.02769
LeftArm  -4.47622 -75.4338 -76.8772
LeftForeArm  74.1011 -5.40902 6.31157
LeftHand  -0.822326 -1.14742 14.7405
RightShoulder  1.86409 4.02559 18.2609
RightArm  -35.4759 -50.1953 50.4748
RightForeArm  79.1253 7.17204 3.1083
RightHand  0.512422 4.2571 5.87805
LeftUpLeg  0.2852 0.137369 1.01019
LeftLeg  -2.57532 13.4692 -1.30611
LeftFoot  0.164537 0.126916 -1.28645
LeftToes  4.76857e-008 1.46588e-008 1.31384e-009
48
root  -2.51062 40.9881 1.31741 -6.68134 -87.2466 9.50502
RightUpLeg  1.47801 -1.01535 -1.39434
RightLeg  -2.95856 -19.6556 1.03074
RightFoot  -0.606516 -0.296918 3.11447
RightToes  -3.10678e-008 1.75238e-005 3.56266e-009
Spine  2.30508 -2.57712 -5.73141
Spine1  -3.79605 -3.68648 8.14961
HEad  -13.2895 2.8152 -2.3196
LeftShoulder1  -0.326785 5.65274 -7.54323
LeftArm  1.26851 -78.0963 -81.6116
LeftForeArm  74.5639 -4.99851 6.38775
LeftHand  -0.88928 -1.80254 14.4938
RightShoulder  1.90503 4.2627 18.0182
RightArm  -38.4205 -52.8517 53.0513
RightForeArm  81.5848 6.41622 1.90258
RightHand  0.546688 4.44557 6.1553
LeftUpLeg  0.0100753 0.0927224 0.996595
LeftLeg  -2.46115 12.0364 -1.29803
LeftFoot  0.211558 0.126915 -1.26029
LeftToes  4.76857e-008 1.46588e-008 1.31384e-009
49
root  -2.5824 40.983 1.25468 -3.9625 -85.4575 6.58225
RightUpLeg  2.0883 -1.16452 -1.31372
RightLeg  -3.12304 -21.3377 1.22825
RightFoot  -0.84318 -0.29194 3.11365
RightToes  -3.10678e-008 1.75238e-005 3.56266e-009
Spine  1.83232 -2.68597 -6.04537
Spine1  -3.22172 -3.85962 8.51096
HEad  -12.7822 1.2575 -1.91268
LeftShoulder1  -0.361969 5.8246 -7.99365
LeftArm  4.52689 -78.0038 -84.8506
LeftForeArm  73.6943 -5.70616 5.85226
LeftHand  -0.814827 -1.5587 13.7726
RightShoulder  2.19712 5.18053 18.8126
RightArm  -40.8478 -53.7199 55.1219
RightForeArm  85.432 5.42751 0.476139
RightHand  0.581465 4.69528 6.38825
LeftUpLeg  -0.0308311 0.117393 1.07178
LeftLeg  -2.10186 10.1962 -1.15653
LeftFoot  0.127088 0.134506 -1.34929
LeftToes  4.76857e-008 1.46588e-008 1.31384e-009
50
root  -2.62038 40.9735 1.19699 -2.65411 -83.4219 5.10431
RightUpLeg  2.58896 -1.27745 -1.20523
RightLeg  -3.22824 -23.2735 1.39474
RightFoot  -1.02748 -0.283729 3.06417
RightToes  -3.10678e-008 1.75238e-005 3.56266e-009
Spine  0.480515 -2.89783 -5.8865
Spine1  -1.29293 -4.08403 8.03637
HEad  -12.4819 -0.0765856 -0.923879
LeftShoulder1  -0.253891 5.03452 -9.27457
LeftArm  4.30078 -76.4462 -85.3542
LeftForeArm  74.392 -6.49633 5.53884
LeftHand  -0.832987 -2.23916 12.8571
RightShoulder  2.70854 6.33834 21.2394
RightArm  -41.8185 -51.5598 55.4267
RightForeArm  89.2136 4.16777 -1.07954
RightHand  0.579198 5.14135 6.05252
LeftUpLeg  -0.345874 0.127354 1.14433
LeftLeg  -1.4472 8.12216 -0.985918
LeftFoot  -0.0170049 0.146227 -1.47433
LeftToes  4.76857e-008 1.46588e-008 1.31384e-009
51
root  -2.64425 40.9632 1.12703 -2.54115 -81.5629 4.63912
RightUpLeg  3.14979 -1.49154 -1.15044
RightLeg  -3.14261 -24.869 1.51456
RightFoot  -1.22198 -0.25237 2.75441
RightToes  -3.10678e-008 1.75238e-005 3.56266e-009
Spine  -1.02068 -2.57062 -6.23494
Spine1  1.11564 -3.89731 8.3692
HEad  -12.4779 -2.35624 0.151376
LeftShoulder1  0.0727793 3.12684 -11.6074
LeftArm  1.01868 -73.4731 -80.7031
LeftForeArm  75.0241 -7.2733 3.69766
LeftHand  -0.774417 -2.62275 11.4219
RightShoulder  3.27169 7.3716 23.9089
RightArm  -40.3613 -47.0534 53.6422
RightForeArm  89.8633 2.94539 -1.60854
RightHand  0.494302 4.90453 5.31016
LeftUpLeg  -0.36698 0.063518 1.15023
LeftLeg  -1.01577 6.34798 -0.808918
LeftFoot  -0.0733592 0.17294 -1.74894
LeftToes  4.76857e-008 1.46588e-008 1.31384e-009
52
root  -2.64447 40.9469 1.03707 -3.29797 -79.4507 5.13558
RightUpLeg  3.49266 -1.79637 -1.22085
RightLeg  -2.79368 -26.6105 1.5014
RightFoot  -1.55065 -0.231963 2.58538
RightToes  -3.10678e-008 1.75238e-005 3.56266e-009
Spine  -2.35156 -2.34211 -6.68831
Spine1  3.13974 -3.69042 8.33018
HEad  -12.2252 -4.89874 2.24458
LeftShoulder1  0.574874 0.706083 -13.6346
LeftArm  -1.43076 -68.9366 -78.4812
LeftForeArm  79.1293 -6.18638 3.16338
LeftHand  -0.80994 -3.02663 11.4052
RightShoulder  4.09247 8.82216 27.2029
RightArm  -37.8911 -40.4326 50.2694
RightForeArm  89.2863 1.64285 -1.66343
RightHand  0.330859 5.66856 3.11607
LeftUpLeg  -0.508417 -0.152464 1.00196
LeftLeg  -0.670646 4.52378 -0.672304
LeftFoot  -0.0567799 0.191598 -1.9362
LeftToes  4.76857e-008 1.46588e-008 1.31384e-009
53
root  -2.60777 40.9351 0.936713 -3.77051 -77.8533 5.06345
RightUpLeg  4.03425 -2.01868 -1.19227
RightLeg  -2.45407 -27.8588 1.45786
RightFoot  -1.82706 -0.227173 2.57141
RightToes  -3.10678e-008 1.75238e-005 3.56266e-009
Spine  -3.51664 -1.96647 -6.74647
Spine1  5.72773 -3.25139 7.61439
HEad  -13.1019 -7.444 4.25504
LeftShoulder1  1.01335 -0.990535 -15.7064
LeftArm  -2.77032 -63.9275 -78.533
LeftForeArm  86.5989 -4.42798 3.48582
LeftHand  -0.832569 -3.87095 10.6832
RightShoulder  4.63886 9.49443 29.7665
RightArm  -36.3149 -30.2867 46.9501
RightForeArm  85.4885 -0.180422 -2.05968
RightHand  0.354254 5.20695 3.60253
LeftUpLeg  -0.280802 -0.187236 0.991949
LeftLeg  -0.464013 3.01583 -0.590987
LeftFoot  -0.010435 0.207321 -2.08997
LeftToes  4.76857e-008 1.46588e-008 1.31384e-009
54
root  -2.5354 40.9264 0.848393 -4.13174 -76.995 4.95036
RightUpLeg  4.32536 -2.14007 -1.13739
RightLeg  -2.04785 -28.499 1.32885
RightFoot  -1.97033 -0.22151 2.50854
RightToes  -3.10678e-008 1.75238e-005 3.56266e-009
Spine  -3.91618 -1.35784 -6.56886
Spine1  6.9266 -2.45501 6.69424
HEad  -13.5288 -9.49898 5.44746
LeftShoulder1  1.61003 -3.04934 -17.9848
LeftArm  -6.64178 -56.3298 -76.514
LeftForeArm  95.1793 -2.34939 4.24079
LeftHand  -0.890636 -4.18677 11.0484
RightShoulder  4.78805 9.49481 30.9194
RightArm  -35.0112 -17.9284 44.4405
RightForeArm  83.0727 -1.84361 -2.33696
RightHand  0.53572 4.84486 5.75318
LeftUpLeg  -0.146634 -0.194965 1.01845
LeftLeg  -0.164021 2.22443 -0.491859
LeftFoot  -0.053816 0.231152 -2.33589
LeftToes  4.76857e-008 1.46588e-008 1.31384e-009
55
root  -2.48139 40.9305 0.782468 -4.30822 -77.4273 4.73492
RightUpLeg  4.57134 -2.0193 -0.964657
RightLeg  -1.96912 -28.0773 1.22204
RightFoot  -1.88524 -0.213302 2.39752
RightToes  -3.10678e-008 1.75238e-005 3.56266e-009
Spine  -4.88842 -1.01468 -6.21206
Spine1  8.51369 -1.97399 5.94695
HEad  -13.2104 -10.7867 5.15428
LeftShoulder1  2.12441 -4.51907 -20.0277
LeftArm  -14.7351 -46.893 -71.5466
LeftForeArm  102.787 0.0527026 6.13585
LeftHand  -0.949103 -3.97416 12.0122
RightShoulder  4.71608 9.46246 30.4342
RightArm  -34.2007 -2.27845 43.0093
RightForeArm  81.0046 -3.94729 -2.83735
RightHand  0.489154 5.03305 5.13214
LeftUpLeg  0.364876 -0.0424415 1.19984
LeftLeg  -0.44115 2.52943 -0.481417
LeftFoot  -0.0202857 0.267648 -2.69775
LeftToes  4.76857e-008 1.46588e-008 1.31384e-009
56
root  -2.42567 40.9351 0.769412 -4.51955 -79.5033 4.79574
RightUpLeg  4.38562 -1.88333 -0.913358
RightLeg  -1.86381 -26.0659 1.14665
RightFoot  -1.75526 -0.203022 2.2469
RightToes  -3.10678e-008 1.75238e-005 3.56266e-009
Spine  -5.34557 -0.560953 -5.72269
Spine1  8.73647 -1.48531 5.73563
HEad  -11.9782 -10.7882 4.12718
LeftShoulder1  2.63634 -5.86646 -21.8105
LeftArm  -23.3264 -34.7244 -65.0296
LeftForeArm  108.462 1.88283 7.6058
LeftHand  -0.857588 -3.24683 11.7515
RightShoulder  4.2126 8.63033 28.7696
RightArm  -33.1148 15.0985 42.8246
RightForeArm  78.5668 -3.89488 -2.71566
RightHand  0.51631 5.05263 5.42607
LeftUpLeg  0.978141 0.169492 1.3882
LeftLeg  -0.979965 4.4339 -0.540718
LeftFoot  -0.089673 0.27241 -2.77849
LeftToes  4.76857e-008 1.46588e-008 1.31384e-009
57
root  -2.4112 40.952 0.778471 -5.45748 -82.5404 5.45436
RightUpLeg  4.43739 -1.69449 -0.9163
RightLeg  -2.03028 -23.0946 1.14517
RightFoot  -1.51261 -0.198268 2.17572
RightToes  -3.10678e-008 1.75238e-005 3.56266e-009
Spine  -5.07983 -0.439812 -4.98272
Spine1  8.19945 -1.32983 5.26423
HEad  -10.2849 -8.35075 2.17171
LeftShoulder1  2.98285 -6.54646 -23.4442
LeftArm  -30.7504 -19.99 -59.5202
LeftForeArm  118.666 0.912154 9.21983
LeftHand  -0.847106 -3.51585 11.2877
RightShoulder  3.77899 8.0556 26.6606
RightArm  -31.1467 32.6451 44.4138
RightForeArm  74.1945 -4.19877 -2.31906
RightHand  0.440929 5.13728 4.54252
LeftUpLeg  1.69239 0.351467 1.48548
LeftLeg  -1.10254 7.31582 -0.481705
LeftFoot  -0.186388 0.293256 -3.07285
LeftToes  4.76857e-008 1.46588e-008 1.31384e-009
58
root  -2.42638 40.9564 0.816194 -11.0221 -86.0759 10.9938
RightUpLeg  4.01968 -1.31906 -0.828013
RightLeg  -1.80746 -19.9362 0.756926
RightFoot  -1.36781 -0.181181 1.90808
RightToes  -3.10678e-008 1.75238e-005 3.56266e-009
Spine  -4.17707 -0.267344 -3.74653
Spine1  7.01113 -1.05606 4.46696
HEad  -9.17045 -5.69208 1.12125
LeftShoulder1  3.17035 -6.78367 -24.6413
LeftArm  -35.9078 -3.49186 -55.7217
LeftForeArm  135.179 -0.0352823 10.5741
LeftHand  -0.917222 -4.2243 11.3208
RightShoulder  3.11616 7.05899 23.3231
RightArm  -27.7699 48.1816 49.2971
RightForeArm  67.4465 -4.05942 -2.04521
RightHand  0.442695 5.31203 4.48451
LeftUpLeg  2.42032 0.601928 1.58345
LeftLeg  -1.53992 10.6453 -0.68312
LeftFoot  -0.392827 0.302533 -3.16965
LeftToes  4.76857e-008 1.46588e-008 1.31384e-009
